<svg id="visual" viewBox="0 0 1920 1080" width="1920" height="1080" xmlns="http://www.w3.org/2000/svg" xmlns:xlink="http://www.w3.org/1999/xlink" version="1.1"><path d="M0 395L32 419C64 443 128 491 192 513C256 535 320 531 384 517.8C448 504.7 512 482.3 576 479.8C640 477.3 704 494.7 768 507.2C832 519.7 896 527.3 960 520.3C1024 513.3 1088 491.7 1152 487.8C1216 484 1280 498 1344 498.2C1408 498.3 1472 484.7 1536 465.5C1600 446.3 1664 421.7 1728 412C1792 402.3 1856 407.7 1888 410.3L1920 413L1920 1081L1888 1081C1856 1081 1792 1081 1728 1081C1664 1081 1600 1081 1536 1081C1472 1081 1408 1081 1344 1081C1280 1081 1216 1081 1152 1081C1088 1081 1024 1081 960 1081C896 1081 832 1081 768 1081C704 1081 640 1081 576 1081C512 1081 448 1081 384 1081C320 1081 256 1081 192 1081C128 1081 64 1081 32 1081L0 1081Z" fill="#fafafa"></path><path d="M0 555L32 562C64 569 128 583 192 580.8C256 578.7 320 560.3 384 550.7C448 541 512 540 576 531.2C640 522.3 704 505.7 768 500.3C832 495 896 501 960 505C1024 509 1088 511 1152 518.2C1216 525.3 1280 537.7 1344 544C1408 550.3 1472 550.7 1536 546.8C1600 543 1664 535 1728 524.3C1792 513.7 1856 500.3 1888 493.7L1920 487L1920 1081L1888 1081C1856 1081 1792 1081 1728 1081C1664 1081 1600 1081 1536 1081C1472 1081 1408 1081 1344 1081C1280 1081 1216 1081 1152 1081C1088 1081 1024 1081 960 1081C896 1081 832 1081 768 1081C704 1081 640 1081 576 1081C512 1081 448 1081 384 1081C320 1081 256 1081 192 1081C128 1081 64 1081 32 1081L0 1081Z" fill="#f7f7f7"></path><path d="M0 634L32 634.2C64 634.3 128 634.7 192 647.3C256 660 320 685 384 685C448 685 512 660 576 654.5C640 649 704 663 768 673C832 683 896 689 960 674.3C1024 659.7 1088 624.3 1152 617C1216 609.7 1280 630.3 1344 646.7C1408 663 1472 675 1536 666.7C1600 658.3 1664 629.7 1728 633.2C1792 636.7 1856 672.3 1888 690.2L1920 708L1920 1081L1888 1081C1856 1081 1792 1081 1728 1081C1664 1081 1600 1081 1536 1081C1472 1081 1408 1081 1344 1081C1280 1081 1216 1081 1152 1081C1088 1081 1024 1081 960 1081C896 1081 832 1081 768 1081C704 1081 640 1081 576 1081C512 1081 448 1081 384 1081C320 1081 256 1081 192 1081C128 1081 64 1081 32 1081L0 1081Z" fill="#f4f4f4"></path><path d="M0 834L32 832.7C64 831.3 128 828.7 192 810.8C256 793 320 760 384 749.3C448 738.7 512 750.3 576 765C640 779.7 704 797.3 768 794.3C832 791.3 896 767.7 960 763.7C1024 759.7 1088 775.3 1152 771.5C1216 767.7 1280 744.3 1344 742.8C1408 741.3 1472 761.7 1536 766C1600 770.3 1664 758.7 1728 767.5C1792 776.3 1856 805.7 1888 820.3L1920 835L1920 1081L1888 1081C1856 1081 1792 1081 1728 1081C1664 1081 1600 1081 1536 1081C1472 1081 1408 1081 1344 1081C1280 1081 1216 1081 1152 1081C1088 1081 1024 1081 960 1081C896 1081 832 1081 768 1081C704 1081 640 1081 576 1081C512 1081 448 1081 384 1081C320 1081 256 1081 192 1081C128 1081 64 1081 32 1081L0 1081Z" fill="#f0f0f0"></path><path d="M0 819L32 824C64 829 128 839 192 848.5C256 858 320 867 384 864C448 861 512 846 576 841.2C640 836.3 704 841.7 768 840C832 838.3 896 829.7 960 826.2C1024 822.7 1088 824.3 1152 822.7C1216 821 1280 816 1344 830.8C1408 845.7 1472 880.3 1536 894.8C1600 909.3 1664 903.7 1728 884.8C1792 866 1856 834 1888 818L1920 802L1920 1081L1888 1081C1856 1081 1792 1081 1728 1081C1664 1081 1600 1081 1536 1081C1472 1081 1408 1081 1344 1081C1280 1081 1216 1081 1152 1081C1088 1081 1024 1081 960 1081C896 1081 832 1081 768 1081C704 1081 640 1081 576 1081C512 1081 448 1081 384 1081C320 1081 256 1081 192 1081C128 1081 64 1081 32 1081L0 1081Z" fill="#ededed"></path><path d="M0 993L32 983.3C64 973.7 128 954.3 192 957C256 959.7 320 984.3 384 994.7C448 1005 512 1001 576 994.8C640 988.7 704 980.3 768 981.2C832 982 896 992 960 983.3C1024 974.7 1088 947.3 1152 937.2C1216 927 1280 934 1344 951.3C1408 968.7 1472 996.3 1536 998.5C1600 1000.7 1664 977.3 1728 973.3C1792 969.3 1856 984.7 1888 992.3L1920 1000L1920 1081L1888 1081C1856 1081 1792 1081 1728 1081C1664 1081 1600 1081 1536 1081C1472 1081 1408 1081 1344 1081C1280 1081 1216 1081 1152 1081C1088 1081 1024 1081 960 1081C896 1081 832 1081 768 1081C704 1081 640 1081 576 1081C512 1081 448 1081 384 1081C320 1081 256 1081 192 1081C128 1081 64 1081 32 1081L0 1081Z" fill="#eaeaea"></path></svg>