<svg xmlns="http://www.w3.org/2000/svg" version="1.1" xlink="http://www.w3.org/1999/xlink" xmlns:svgjs="http://svgjs.com/svgjs" width="100%" height="100%" viewBox="0 0.00024126759672071785 99.9984130859375 81.31376647949219"><g fill="#536dfe"><path d="M39.74 2.399l-.255-1.1a51.587 51.587 0 0 1 4.49-.83l.158 1.121a51.095 51.095 0 0 0-4.393.809zm22.177-.066a46.559 46.559 0 0 0-4.403-.777l.15-1.122c1.515.195 3.027.464 4.497.795l-.244 1.104zM48.589 1.184L48.536.055a53.235 53.235 0 0 1 4.572-.011l-.042 1.132a50.636 50.636 0 0 0-4.477.008zM7.252 77.205a51.258 51.258 0 0 0 2.525 3.809l.914-.669a49.315 49.315 0 0 1-2.473-3.722l-.966.582zm-3.985-8.222a49.538 49.538 0 0 0 1.806 4.199l1.015-.493a50.795 50.795 0 0 1-1.766-4.102l-1.055.396zM.826 60.179a51.192 51.192 0 0 0 1.022 4.455l1.09-.301a50.402 50.402 0 0 1-1-4.358l-1.112.204zm.304-9.097H0c.002 1.518.073 3.054.21 4.569l1.125-.102a49.853 49.853 0 0 1-.205-4.467zm.776-8.899l-1.113-.2a52.31 52.31 0 0 0-.6 4.535l1.125.096c.131-1.485.327-2.977.588-4.431zm2.349-8.621l-1.059-.393a51.593 51.593 0 0 0-1.402 4.349l1.091.299c.389-1.419.851-2.85 1.37-4.255zm3.862-8.053l-.972-.577a50.712 50.712 0 0 0-2.16 4.031l1.019.485a50.121 50.121 0 0 1 2.113-3.939zm1.544-4.395l.915.662a50.574 50.574 0 0 1 2.782-3.5l-.853-.743a50.174 50.174 0 0 0-2.844 3.581zm9.427-9.907a51.395 51.395 0 0 0-3.433 3.01l.782.821a48.73 48.73 0 0 1 3.357-2.949l-.706-.882zm66.986 2.799a52.56 52.56 0 0 0-3.447-2.998l-.707.888a49.61 49.61 0 0 1 3.379 2.93l.775-.82zm-58.84-6.869l-.54-.989a50.043 50.043 0 0 0-3.916 2.357l.628.936a51.086 51.086 0 0 1 3.828-2.304zm51.683 1.192a50.488 50.488 0 0 0-3.935-2.336l-.528.997c1.31.7 2.605 1.47 3.846 2.282l.617-.943zm-43.483-4.73l-.354-1.072a49.908 49.908 0 0 0-4.272 1.621l.446 1.038a50.952 50.952 0 0 1 4.18-1.587zm35.428.424a52.782 52.782 0 0 0-4.288-1.593l-.345 1.077c1.423.455 2.831.981 4.191 1.559l.442-1.043zm28.267 22.751l-2.716-2.711 1.117-9.237-1.241-1.23-3.197 7.139-1.85-1.846a1.516 1.516 0 0 0-.609-.361l.624-3.083-.992-.993-1.476 3.457-3.455 1.474.989.994 3.087-.624c.075.229.199.446.362.61l1.85 1.85-7.144 3.201 1.227 1.236 9.245-1.112 2.707 2.711a2.92 2.92 0 0 0 1.873.867.481.481 0 0 0 .339-.124.45.45 0 0 0 .129-.335 2.948 2.948 0 0 0-.869-1.883zM51.09 15.112c-18.253 0-33.101 14.848-33.101 33.101 0 18.251 14.848 33.101 33.101 33.101 18.251 0 33.101-14.85 33.101-33.101 0-18.253-14.85-33.101-33.101-33.101zm26.983 38.497c.601.607.87 1.167.991 1.774-3.197 12.465-14.527 21.706-27.974 21.706a28.703 28.703 0 0 1-13.759-3.494c.041-.179.081-.361.121-.555.244-1.177 2.063-1.742 2.844-2.521.761-.762 2.275-1.223 2.745-2.219.308-.653-.128-1.49.134-2.099.199-.458.958-.957 1.314-1.314.894-.894 1.564-3.22 1.564-4.442h-4.012c-1.267 0-1.021-1.498-1.026-2.429-.001-.5.031-1.111-.212-1.568-.277-.52-1.174-.368-1.655-.612-.837-.425-1.531-1.257-1.695-2.192-.108-.613-.086-1.062-.857-1.032-.758.032-1.462.639-2.167.639h-8.524c0 .317-.18 1.349.109 1.494.723.36 1.445.722 2.167 1.083 1.078.54 1.394 1.889 1.921 2.941.518 1.036 1.105 2.054 1.559 3.116.562 1.314.97 2.777 1.993 3.833.431.445 1.267.354 1.45.967.232.77-.007 1.71-.184 2.468-.196.839-.442 1.668-.659 2.502-5.966-4.296-10.229-10.807-11.581-18.319.402-.031.805-.085 1.039-.085.78 0 .804-.058 1.369-.621.495-.495.817-.642.817-1.324v-2.372c.96.479 1.918.96 2.878 1.438.042-1.163.873-1.312 1.831-1.473 1.138-.188 1.887-1.405 2.941-1.405.869 0 1.23.166 2.046.43.428.141.965.304 1.412.165.601-.188.459-1.261.667-1.743.299-.697.754-1.683 1.56-1.75.876-.07 2.012-.465 1.056-1.419-1.049-1.049-1.833-2.387-2.542-3.68-.303-.555-.379-1.43-.89-1.813-1.116-.838-2.792.298-3.63 1.05-.471.425.268 1.402-.379 1.675-1.052.446-2.425.804-3.511.285-.592-.283-.958-.977-1.63-1.101-.464-.084-.37-.214-.37-.734v-2.631c0-.364.101-.221.432-.316 1.303-.374.534-2.07 1.825-2.091 1.497-.025.019-2.576-.386-3.096-.227-.292-.453-.423-.7-.482C33.81 23.605 41.959 19.34 51.091 19.34c8.311 0 15.809 3.534 21.082 9.173-1.552 1.686-3.22 3.605-4.354 4.456-.778.583-1.786.937-2.655 1.371-.867.435-2.043.202-2.993.202-.247 0-3.165-.04-3.165.036 0 .865.433 2.625-.402 3.044-.997.498-2.116.878-2.909 1.669-.225.225-1.146.867-.881 1.133l.004.003a.889.889 0 0 0-.449-.123c-1.129.038-2.53.086-3.514.708-.624.394-.455.99-.538 1.645-.094.736-.325 1.515-.854 2.06-.632.652-.531.759-.531 1.817 1.119-.124 2.24-.249 3.362-.372.132-.018.955-.022.955-.169 0-.278-.157-1.22.034-1.411l1.28-1.28c.259-.259.73.48.942.693.39.389.771.472.357.882-.391.394-.784.787-1.175 1.178.174 0 1.437.047 1.44-.033.051-1.074.701-2.108 1.438-2.845.796-.796 1.887-.805 2.745-.117.347.28.134 1.179.134 1.556 0 .253-.07 2.878.062 2.878.633 0 1.185.146 1.67-.265 1.667-1.403 3.848-1.067 5.464-2.613l1.439 2.878c-1.143.382-2.287.762-3.43 1.143-.09.029-.862.346-.902.269-.261-.513-.539-1.039-.894-1.495-.472-.607-.59-.08-.497.478.151.922.736 1.785 1.371 2.451.666.698 1.039 2.043 1.473 2.912-.09-1.769 2.485 1.045 2.879 1.438l1.827-1.826.905-.905c.244-.245-.028-.315-.216-.579-1.016-1.42 1.593-1.007 2.386-1.007 1.498 0 2.637.391 3.732 1.439-1.391-.072.04 1.475.36 1.797z"></path><path d="M52.289 37.419c-.318.32-.64.639-.958.96-.328.12-.87.143-.89.521-.024.467-.045.931-.07 1.398l1.88-.939c.2-.101.038-1.662.038-1.94zm2.854-1.439c.357 0 .984.2.984-.225v-.027c.069.137.193.223.386.241-.115.484-.241.968-.386 1.451l1.313-1.314c.294-.294.125-1.03.125-1.42v-3.023a7.427 7.427 0 0 1-.132.248c-.018-.203-.027-.402-.048-.607l-.167 1.006c-.368.688-.897 1.733-1.092 2.534v-3.18c-.29.58-2.514 4.316-.983 4.316zm12.891 22.993c.94-.157 1.805-.756 2.485-1.405l-3.199-1.066c-1.194-.398-1.197-.527-1.775-1.686-.453-.909-.766-1.549-1.471-2.254-.515-.515-2.19-1.66-2.19-2.415 0-1.149.223-1.214-.853-1.214h-10.66c-.87.882-1.714 1.841-2.353 2.906-1.137 1.895.285 2.842 1.53 4.205 1.332 1.457.816 3.931 3.308 4.368.889.154 1.894.033 2.794.033.107 0 2.08-.278 1.89-.624.209.375.094 1.417.168 1.872.169 1.021.39 2.035.616 3.044.267 1.203.683 2.39.683 3.624 0 1.269 1.321 2.04 2.189 2.909.33.33.519.688.988.688h2.438c.404 0-.35-4.992.929-5.623.365-.18 1.087.021 1.303-.396.149-.283-.014-.631.135-.913.358-.69 1.203-.016 1.285-1.152.064-.922-.099-2.825-.749-3.555-.791-.888-.545-1.169.509-1.346zM46.035 28.767a18.118 18.118 0 0 0-2.367-1.996c-1.143-.794-2.004-.865-3.372-.865-.654 0-1.321-.045-1.973.008-.281.023-.172.337-.253.545-.491 1.256-2.532 2.765-3.531 3.764 1.382 0 2.153 2.867 2.677 3.915.315.629.202 1.283.202 1.986 0 1.029-.089 1.207.622 1.918.706.706.646.989 1.343.292l2.101-2.101c.46-.462.251-1.21.251-1.836 0-.924-.328-1.295.607-1.295.718 0 1.392.064 1.97-.432.438-.378.779-.854 1.381-.973.668-.132 2.08-.371 1.798-1.474-.114-.447-1.114-1.118-1.456-1.456z"></path></g></svg>